<?xml version="1.0" standalone="no"?>
<!DOCTYPE svg PUBLIC "-//W3C//DTD SVG 1.1//EN" "http://www.w3.org/Graphics/SVG/1.1/DTD/svg11.dtd" >
<svg xmlns="http://www.w3.org/2000/svg" xmlns:xlink="http://www.w3.org/1999/xlink" version="1.1">
<metadata>
Created by FontForge 20181214 at Thu Jul 24 13:56:39 2008
 By convertio
Copyright (c) 2008 by Jovanny Lemonad. All rights reserved.
</metadata>
<defs>
<font id="Neucha" horiz-adv-x="500" >
  <font-face 
    font-family="Neucha"
    font-weight="400"
    font-stretch="normal"
    units-per-em="1000"
    panose-1="2 0 5 6 2 0 0 2 0 3"
    ascent="800"
    descent="-200"
    x-height="501"
    cap-height="714"
    bbox="-98 -289 907.431 931.206"
    underline-thickness="50"
    underline-position="-100"
    stemh="88"
    stemv="88"
    unicode-range="U+0020-201E"
  />
<missing-glyph 
 />
    <glyph glyph-name=".notdef" 
 />
    <glyph glyph-name="space" unicode=" " horiz-adv-x="280" 
 />
    <glyph glyph-name="exclam" unicode="!" horiz-adv-x="197" 
d="M118 168l-44 10c-13 170 -17 341 -25 511c7 67 84 38 88 -19c-8 -167 -5 -335 -19 -502zM133 93c43 -62 6 -137 -60 -87c-41 60 -12 147 60 87z" />
    <glyph glyph-name="quotedbl" unicode="&#x22;" horiz-adv-x="327" 
d="M101 515l-44 10c-7 53 -15 105 -22 158c7 67 84 38 88 -19c-7 -50 -15 -99 -22 -149zM273 515l-44 10c-7 53 -15 105 -22 158c7 67 84 38 88 -19c-7 -50 -15 -99 -22 -149z" />
    <glyph glyph-name="numbersign" unicode="#" horiz-adv-x="664" 
d="M40 237l-10 44c44 2 89 4 133 6c13 45 26 91 39 136c-31 1 -61 1 -91 2c-44 9 -75 71 -19 88c44 -5 88 -9 133 -12c25 85 47 159 63 198l60 1c-20 -52 -43 -124 -65 -203c56 -4 112 -7 168 -10c27 92 51 174 68 215l60 1c-22 -55 -46 -134 -69 -219c39 -3 79 -5 118 -8
l10 -44c-48 -4 -96 -6 -144 -8c-11 -41 -22 -83 -33 -124c21 1 41 2 62 3c57 -4 86 -81 19 -88c-34 1 -67 2 -101 4c-24 -94 -45 -173 -57 -211c-21 -7 -34 -4 -71 -5c7 20 32 110 63 219c-54 2 -109 5 -163 7c-26 -99 -47 -184 -60 -224c-21 -7 -34 -4 -71 -5
c8 21 34 117 66 232c-36 2 -72 3 -108 5zM263 422c-12 -44 -24 -89 -35 -132c57 2 113 5 169 7c11 42 23 84 35 126c-57 -1 -113 -1 -169 -1z" />
    <glyph glyph-name="dollar" unicode="$" horiz-adv-x="448" 
d="M198 810l44 -10c2 -19 3 -38 5 -58c65 -13 132 -42 162 -56l-12 -40c-30 10 -90 29 -145 36c6 -91 11 -182 15 -273c181 -68 238 -347 65 -406c-15 -5 -34 -7 -55 -8c0 -13 1 -26 1 -39c-17 -56 -79 -25 -88 19c0 8 1 17 2 26c-68 10 -137 32 -166 55l14 54
c48 -25 102 -43 155 -45c4 81 6 180 7 285c-234 62 -249 309 -78 390c20 9 46 12 75 9c0 21 -1 41 -1 61zM163 677c-97 -40 -90 -188 40 -247c0 86 -1 172 -2 254c-15 0 -28 -3 -38 -7zM307 87c74 36 43 172 -37 233c2 -83 4 -165 6 -246c10 4 21 8 31 13z" />
    <glyph glyph-name="percent" horiz-adv-x="838" 
d="M625 755l52 -35c-45 -99 -383 -608 -428 -718c-38 -45 -102 9 -76 57c54 67 358 525 452 696zM528 236c85 101 203 81 261 -33c34 -67 -1 -158 -53 -200c-45 -36 -118 -34 -166 -7c-85 48 -111 158 -42 240zM573 198c-43 -49 -27 -115 26 -144c30 -16 76 -18 105 4
c32 25 54 80 33 120c-37 68 -111 80 -164 20zM63 713c85 101 203 81 261 -33c34 -67 -1 -158 -53 -200c-45 -36 -118 -34 -166 -7c-85 48 -111 158 -42 240zM108 675c-43 -49 -27 -115 26 -144c30 -16 76 -18 105 4c32 25 54 80 33 120c-37 68 -111 80 -164 20z" />
    <glyph glyph-name="ampersand" unicode="&#x26;" horiz-adv-x="525" 
d="M416 522l49 -3c6 -44 7 -77 12 -131c15 1 40 2 55 3c5 -11 14 -28 13 -68h-61c18 -165 -50 -303 -240 -323c-71 0 -222 34 -236 198c-1 68 25 140 87 176c-63 48 -76 99 -71 152c49 198 261 153 301 138l-15 -37c-86 12 -195 4 -212 -94c-11 -63 24 -118 88 -137
c77 -23 160 -13 238 -12c-7 63 -7 82 -8 138zM422 322l-248 11c-57 -42 -88 -85 -82 -136c8 -69 88 -126 145 -128c125 -4 209 154 185 253z" />
    <glyph glyph-name="quotesingle" unicode="'" horiz-adv-x="161" 
d="M101 515l-44 10c-7 53 -15 105 -22 158c7 67 84 38 88 -19c-7 -50 -15 -99 -22 -149z" />
    <glyph glyph-name="parenleft" unicode="(" horiz-adv-x="262" 
d="M126 744l43 -13c-95 -444 -46 -477 22 -795c-1 -61 -54 -55 -73 -12c-71 348 -102 417 8 820z" />
    <glyph glyph-name="parenright" unicode=")" horiz-adv-x="242" 
d="M68 731l43 13c110 -403 79 -472 8 -820c-19 -43 -72 -49 -73 12c68 318 117 351 22 795z" />
    <glyph glyph-name="asterisk" unicode="*" horiz-adv-x="491" 
d="M87 702l31 26c28 -25 71 -69 99 -94c2 35 -10 89 -5 125l44 -10c3 -23 -10 -74 -8 -96c29 29 73 85 106 107l28 -38c-29 -30 -79 -77 -107 -109c28 1 82 13 110 15c20 -35 21 -63 27 -83c-30 2 -99 16 -128 18c31 -28 93 -72 125 -100c-29 -25 -35 -24 -66 -42
c-27 28 -59 87 -86 115c1 -14 16 -101 17 -115c-30 1 -45 1 -82 8c1 13 7 107 8 121c-25 -30 -54 -108 -87 -129c-30 14 -28 32 -57 76c34 17 63 37 92 63c-19 2 -64 13 -82 16l-10 44c23 3 95 -8 118 -7c-23 26 -66 61 -87 89z" />
    <glyph glyph-name="plus" unicode="+" horiz-adv-x="497" 
d="M193 638l44 -10c5 -46 14 -156 18 -189c57 3 113 6 170 9c57 -4 86 -81 19 -88c-61 3 -121 6 -182 10c7 -70 14 -141 19 -211c-17 -56 -79 -25 -88 19c2 65 1 130 -1 195c-55 3 -109 6 -163 9l-10 44l171 9c-2 68 -2 135 3 203z" />
    <glyph glyph-name="comma" unicode="," horiz-adv-x="209" 
d="M42 -117l-1 31c56 19 79 44 66 89c-17 -2 -31 -7 -40 12c-41 60 -12 147 60 87c65 -93 52 -213 -85 -219z" />
    <glyph glyph-name="hyphen" unicode="-" 
d="M99 421l-10 44c82 7 163 15 245 22c57 -4 86 -81 19 -88c-85 7 -169 15 -254 22z" />
    <glyph glyph-name="period" unicode="." horiz-adv-x="209" 
d="M127 102c43 -62 6 -137 -60 -87c-41 60 -12 147 60 87z" />
    <glyph glyph-name="slash" unicode="/" horiz-adv-x="446" 
d="M399 826l44 -16c-73 -253 -291 -637 -367 -895c-38 -45 -102 9 -76 57c22 90 339 710 399 854z" />
    <glyph glyph-name="zero" unicode="0" horiz-adv-x="460" 
d="M18 331c2 283 77 390 218 398c166 9 203 -234 208 -390c5 -147 -72 -374 -199 -372c-187 3 -228 188 -227 364zM222 653c-130 -25 -114 -178 -125 -319c-2 -100 13 -277 125 -288c101 -10 158 180 147 280c-14 127 -6 324 -147 327z" />
    <glyph glyph-name="one" unicode="1" horiz-adv-x="409" 
d="M76 3v52c43 6 68 12 112 19c6 192 -4 385 4 577c-68 -39 -93 -54 -130 -82l-31 33c48 41 131 106 169 144c31 -4 34 -1 64 -5c11 -200 2 -473 9 -673c31 -5 63 -11 95 -15l16 -52c-78 0 -311 0 -308 2z" />
    <glyph glyph-name="two" unicode="2" horiz-adv-x="440" 
d="M388 67l30 -64c-123 -3 -283 -2 -395 -3c2 21 -1 35 -1 59c113 124 246 243 320 469c50 152 -201 220 -249 -28l-44 16c10 269 400 263 360 0c-26 -126 -192 -347 -291 -448c80 -5 190 4 270 -1z" />
    <glyph glyph-name="three" unicode="3" horiz-adv-x="440" 
d="M40 31l8 45c55 -10 171 -38 206 -15c155 101 47 335 -152 316c0 34 -4 18 0 48c159 -14 330 99 180 231c-32 28 -141 4 -195 -1l-16 44c62 18 159 51 228 20c121 -53 142 -319 -15 -323c148 -23 165 -339 21 -395c-56 -21 -208 6 -265 30z" />
    <glyph glyph-name="four" unicode="4" horiz-adv-x="474" 
d="M446 284l10 -44c-24 -3 -48 -6 -72 -8c3 -90 7 -136 10 -225c-17 -56 -79 -25 -88 19c2 81 4 119 7 200c-80 -7 -187 8 -267 3c3 27 1 47 1 71c96 161 166 278 264 407c33 2 56 -6 83 -13c-5 -101 -6 -304 -12 -405c21 -1 42 -3 64 -5zM118 297c67 -2 130 -4 197 -6
c3 73 8 258 10 330c-69 -71 -147 -238 -207 -324z" />
    <glyph glyph-name="five" unicode="5" horiz-adv-x="452" 
d="M405 693l10 -44c-77 -15 -148 -3 -226 -11c-11 -80 -23 -159 -38 -239c120 28 211 -40 253 -130c93 -198 -150 -393 -387 -230c20 20 23 82 56 57c273 -207 394 290 74 234c-37 20 -48 22 -82 40c50 193 30 203 76 333c84 -7 181 2 264 -10z" />
    <glyph glyph-name="six" unicode="6" horiz-adv-x="446" 
d="M388 707l16 -44c-117 -62 -244 -124 -271 -262c175 116 329 -191 258 -324c-99 -181 -358 -104 -351 96c10 233 29 437 348 534zM111 180c-5 -164 163 -188 216 -57c32 58 -42 250 -135 237c-84 0 -81 -78 -81 -180z" />
    <glyph glyph-name="seven" unicode="7" horiz-adv-x="445" 
d="M154 -8l-76 23c116 279 109 273 264 646c-102 3 -208 5 -309 14l-10 44c125 14 274 3 399 12c-2 -29 -2 -39 -5 -85c-98 -243 -167 -412 -263 -654z" />
    <glyph glyph-name="eight" unicode="8" horiz-adv-x="466" 
d="M353 3c-48 -13 -105 -25 -213 -6c-144 56 -134 380 14 403c-157 4 -136 270 -15 323c50 22 157 19 208 -2c121 -53 142 -319 -15 -323c148 -23 165 -339 21 -395zM310 69c122 88 77 275 -78 277c-212 -61 -105 -349 78 -277zM253 685c-191 -15 -162 -261 -14 -255
c186 4 156 228 14 255z" />
    <glyph glyph-name="nine" unicode="9" horiz-adv-x="446" 
d="M60 -19l-16 44c117 62 244 124 271 262c-175 -116 -329 191 -258 324c99 181 358 104 351 -96c-10 -233 -29 -437 -348 -534zM337 508c5 164 -163 188 -216 57c-32 -58 42 -250 135 -237c84 0 81 78 81 180z" />
    <glyph glyph-name="colon" unicode=":" horiz-adv-x="209" 
d="M133 189c43 -62 6 -137 -60 -87c-41 60 -12 147 60 87zM133 565c43 -62 6 -137 -60 -87c-41 60 -12 147 60 87z" />
    <glyph glyph-name="semicolon" unicode=";" horiz-adv-x="209" 
d="M133 565c43 -62 6 -137 -60 -87c-41 60 -12 147 60 87zM48 -30l-1 31c56 19 79 44 66 89c-17 -2 -31 -7 -40 12c-41 60 -12 147 60 87c65 -93 52 -213 -85 -219z" />
    <glyph glyph-name="less" unicode="&#x3c;" horiz-adv-x="621" 
d="M593 111l3 -63c-206 68 -370 121 -587 248c0 23 2 48 8 74c222 66 356 155 570 223l15 -56c-176 -74 -324 -165 -495 -220c85 -64 446 -195 486 -206z" />
    <glyph glyph-name="equal" unicode="=" horiz-adv-x="604" 
d="M26 457l-10 44c161 13 322 11 482 19c57 -4 86 -81 19 -88c-164 8 -328 12 -491 25zM11 190l-10 44c166 13 332 19 497 27c57 -4 86 -81 19 -88c-169 8 -338 4 -506 17z" />
    <glyph glyph-name="greater" unicode="&#x3e;" horiz-adv-x="621" 
d="M14 48l3 63c40 11 401 142 486 206c-171 55 -319 146 -495 220l15 56c214 -68 348 -157 570 -223c6 -26 8 -51 8 -74c-217 -127 -381 -180 -587 -248z" />
    <glyph glyph-name="question" unicode="?" 
d="M132 504l-44 10c-99 254 308 248 349 63c62 -239 -145 -197 -158 -377c-17 -56 -79 -25 -88 19c-11 166 198 157 191 315c-7 151 -325 168 -250 -30zM272 98c43 -62 6 -137 -60 -87c-41 60 -12 147 60 87z" />
    <glyph glyph-name="at" unicode="@" horiz-adv-x="762" 
d="M390 445c34 -52 16 -150 15 -189c106 -135 251 85 223 195c-7 284 -452 344 -535 -36c-77 -356 297 -472 588 -281c42 24 98 -14 72 -61c-335 -250 -802 -100 -729 363c56 382 585 478 664 12c-36 -323 -220 -316 -306 -249c-49 -46 -132 -37 -177 43
c-84 112 48 340 185 203zM362 252c7 42 5 187 -79 168c-135 -63 11 -275 79 -168z" />
    <glyph glyph-name="A" unicode="A" horiz-adv-x="534" 
d="M231 708l74 -5c53 -233 166 -443 224 -673c5 -69 -60 -74 -72 -17c-14 62 -38 119 -58 172c-106 14 -149 20 -252 31c-24 -65 -39 -158 -61 -224c-35 -42 -88 -1 -83 45c61 224 162 438 228 671zM265 609c-18 -105 -70 -245 -109 -346c82 -1 159 3 234 -5
c-50 107 -104 234 -125 351z" />
    <glyph glyph-name="B" unicode="B" horiz-adv-x="451" 
d="M28 25l5 688c17 55 149 33 188 20c73 -23 145 -69 153 -150c6 -64 -29 -143 -78 -162c64 -7 133 -125 136 -209c31 -205 -332 -257 -404 -187zM108 363c2 -73 -3 -193 -2 -266c66 -84 250 10 249 125c0 124 -114 173 -247 141zM106 448c263 -70 248 311 -2 231
c-1 0 -1 1 -1 1c3 -100 2 -159 3 -232z" />
    <glyph glyph-name="C" unicode="C" 
d="M454 645l-39 -45c-148 109 -317 65 -330 -187c2 -119 -15 -157 47 -281c73 -145 187 -97 319 -30c17 -24 22 -38 34 -62c-138 -95 -291 -136 -396 16c-113 167 -96 371 -26 552c63 162 287 106 391 37z" />
    <glyph glyph-name="D" unicode="D" horiz-adv-x="517" 
d="M37 6l3 705c228 -8 409 -114 443 -326c12 -69 23 -188 -31 -241c-115 -113 -232 -161 -415 -138zM102 649l8 -584c105 -3 223 20 284 116c129 203 -148 508 -292 468z" />
    <glyph glyph-name="E" unicode="E" horiz-adv-x="428" 
d="M395 44l10 -44c-73 3 -319 -17 -382 0c20 221 3 518 24 711c80 -8 285 -1 364 -14l10 -44c-74 -13 -239 -22 -314 -30c3 -77 8 -129 9 -206c60 -7 173 -15 232 -21l10 -44c-63 -6 -178 -19 -241 -20c1 -67 -4 -191 -3 -259c85 -8 197 -16 281 -29z" />
    <glyph glyph-name="F" unicode="F" horiz-adv-x="428" 
d="M112 -6l-89 6c20 221 3 518 24 711c80 -8 285 -1 364 -14l10 -44c-74 -13 -239 -22 -314 -30c3 -77 8 -129 9 -206c60 -7 173 -15 232 -21l10 -44c-63 -6 -178 -19 -241 -20c1 -67 -6 -270 -5 -338z" />
    <glyph glyph-name="G" unicode="G" horiz-adv-x="511" 
d="M326 225l-10 44c40 7 147 12 187 19c-1 -134 7 -53 -5 -310c-32 -23 -78 -25 -88 18c-116 -59 -235 -65 -321 60c-113 167 -96 371 -26 552c63 162 287 106 391 37l-39 -45c-148 109 -317 65 -330 -187c2 -119 -15 -157 47 -281c66 -132 167 -104 284 -47
c3 41 7 81 10 122c-33 6 -66 12 -100 18z" />
    <glyph glyph-name="H" unicode="H" horiz-adv-x="461" 
d="M342 702l56 12c31 -240 16 -468 32 -706c-17 -56 -79 -25 -88 19c2 92 0 218 1 310c-75 -5 -150 -16 -228 -11c3 -106 10 -213 14 -318c-17 -56 -79 -25 -88 19c8 213 2 474 15 687l44 -10c5 -95 12 -225 15 -320c75 6 150 13 225 20c1 0 2 -1 2 298z" />
    <glyph glyph-name="I" unicode="I" horiz-adv-x="325" 
d="M23 -3l8 48c35 6 67 25 102 26c5 177 -5 369 -8 547c-35 7 -64 13 -99 20l-6 56c74 -2 161 0 251 -2l3 -48c-29 -12 -55 -21 -85 -26c10 -178 -1 -369 6 -547c27 -5 78 -19 105 -23l8 -51c-87 2 -198 0 -285 0z" />
    <glyph glyph-name="J" unicode="J" horiz-adv-x="410" 
d="M34 96l50 25c66 -90 143 -84 190 -62c41 21 20 514 25 649c22 -9 40 6 71 -8c-13 -183 31 -662 -29 -683c-65 -50 -235 -91 -307 79z" />
    <glyph glyph-name="K" unicode="K" horiz-adv-x="471" 
d="M454 -7h-86c-93 86 -169 188 -248 284c4 -79 9 -185 13 -263c-17 -56 -79 -25 -88 19c7 208 2 480 14 688l44 -10c6 -90 7 -240 12 -330c115 140 186 231 293 333l30 -48c-37 -62 -203 -251 -273 -332c76 -81 213 -266 289 -341z" />
    <glyph glyph-name="L" unicode="L" horiz-adv-x="468" 
d="M23 700l58 -6c9 -87 21 -340 29 -615c126 7 200 1 327 7c11 -30 6 -58 14 -92c-149 9 -290 9 -435 8c8 256 3 509 7 698z" />
    <glyph glyph-name="M" unicode="M" horiz-adv-x="764" 
d="M748 0l-74 -7c-33 207 -67 385 -117 577c-57 -134 -82 -274 -124 -393c-24 -3 -76 5 -98 5c-2 52 -86 289 -109 394c-16 -144 -103 -460 -136 -576l-61 6c29 235 112 455 131 688c39 6 79 -3 100 -6c30 -5 104 -345 125 -400c50 124 85 314 121 411c35 -2 57 -5 98 -9
c57 -221 97 -462 144 -690z" />
    <glyph glyph-name="N" unicode="N" 
d="M15 27l13 676h52c108 -213 201 -384 320 -606c-1 215 2 412 11 607l55 -11c11 -212 15 -490 18 -698c-34 -15 -70 -12 -113 11c-105 163 -172 333 -273 511c3 -165 0 -345 5 -509c-17 -56 -79 -25 -88 19z" />
    <glyph glyph-name="O" unicode="O" horiz-adv-x="493" 
d="M38 460l18 144c11 92 106 134 182 131c243 -38 239 -323 221 -506c-13 -146 -35 -255 -204 -240c-52 5 -137 15 -181 49c-88 70 -47 330 -36 422zM262 651c-174 40 -160 -197 -161 -304c-1 -161 -32 -304 157 -294c215 11 164 570 4 598z" />
    <glyph glyph-name="P" unicode="P" horiz-adv-x="473" 
d="M48 701l44 12c0 -5 0 -31 1 -35c67 43 230 55 293 -2c114 -102 112 -409 -56 -461c-65 -19 -154 -4 -218 3c2 -74 5 -148 8 -222c-17 -56 -79 -25 -88 19c7 229 5 457 16 686zM101 612l8 -304c46 -26 139 -44 192 -16c205 108 40 501 -200 320z" />
    <glyph glyph-name="Q" unicode="Q" horiz-adv-x="493" 
d="M396 -112l10 -44c-116 -12 -166 49 -188 149c-49 7 -109 18 -144 45c-88 70 -47 330 -36 422l18 144c11 92 106 134 182 131c243 -38 239 -323 221 -506c-12 -132 -31 -233 -158 -241c-13 -64 68 -105 95 -100zM262 651c-174 40 -160 -197 -161 -304
c-1 -161 -32 -304 157 -294c215 11 164 570 4 598z" />
    <glyph glyph-name="R" unicode="R" horiz-adv-x="473" 
d="M485 -16l16 -40c-123 4 -254 165 -312 265c-28 3 -54 6 -77 9c2 -74 5 -148 8 -222c-17 -56 -79 -25 -88 19c7 229 5 457 16 686l44 12c0 -5 0 -31 1 -35c67 43 230 55 293 -2c114 -102 112 -409 -56 -461c-16 -5 -33 -8 -51 -9c39 -81 124 -200 206 -222zM101 612
l8 -304c46 -26 139 -44 192 -16c205 108 40 501 -200 320z" />
    <glyph glyph-name="S" unicode="S" horiz-adv-x="448" 
d="M26 56l14 54c82 -43 182 -65 267 -23c90 44 26 232 -92 260c-247 57 -265 311 -91 393c74 35 235 -29 285 -54l-12 -40c-48 17 -180 55 -234 31c-108 -45 -87 -224 91 -263c192 -59 255 -350 78 -411c-77 -25 -253 12 -306 53z" />
    <glyph glyph-name="T" unicode="T" horiz-adv-x="451" 
d="M25 655l-10 44c125 7 249 15 373 22c57 -4 86 -81 19 -88c-55 3 -109 6 -164 9c15 -208 27 -418 36 -627c-17 -56 -79 -25 -88 19c6 204 -5 407 5 611c-57 4 -114 7 -171 10z" />
    <glyph glyph-name="U" unicode="U" horiz-adv-x="488" 
d="M398 725l58 -5c18 -236 13 -417 1 -633c-46 -152 -409 -163 -421 11c-17 236 -14 389 -7 620l54 -12c13 -191 13 -379 27 -575c10 -133 238 -91 256 -33c40 131 24 419 32 627z" />
    <glyph glyph-name="V" unicode="V" horiz-adv-x="464" 
d="M390 703l59 -3c-14 -42 -134 -582 -179 -699c-19 -4 -53 0 -81 5c-51 155 -139 604 -159 698l56 -1c30 -138 90 -381 140 -576c49 178 145 538 164 576z" />
    <glyph glyph-name="W" unicode="W" horiz-adv-x="714" 
d="M638 703l59 -3c-14 -42 -134 -582 -179 -699c-19 -4 -53 0 -81 5c-22 67 -52 191 -80 316c-33 -137 -68 -270 -87 -321c-19 -4 -53 0 -81 5c-51 155 -139 604 -159 698l56 -1c30 -138 90 -381 140 -576c26 92 64 235 97 356c-21 100 -38 186 -45 221l56 -1
c30 -138 90 -381 140 -576c49 178 145 538 164 576z" />
    <glyph glyph-name="X" unicode="X" horiz-adv-x="520" 
d="M23 -9l-42 22c56 132 144 250 219 370c-67 104 -147 209 -213 317l41 19c64 -75 147 -191 208 -279c9 33 149 210 178 262c28 51 84 14 87 -32c-22 -28 -180 -253 -220 -300c74 -113 199 -270 245 -344c4 -60 -62 -51 -84 -10c-81 127 -132 192 -200 298
c-69 -109 -153 -213 -219 -323z" />
    <glyph glyph-name="Y" unicode="Y" horiz-adv-x="476" 
d="M411 706l54 -17c-33 -64 -112 -255 -200 -393c7 -91 3 -201 9 -293c-18 -3 -72 -3 -86 0c6 89 3 203 10 293c-84 140 -127 288 -186 406l66 5c67 -144 99 -220 154 -332c66 120 118 242 179 331z" />
    <glyph glyph-name="Z" unicode="Z" horiz-adv-x="482" 
d="M435 59l2 -60c-109 -7 -304 6 -413 0c-1 19 2 36 6 53c7 61 259 442 339 579c-108 5 -241 5 -349 15v53c123 -1 312 5 437 7c0 -29 1 -15 -2 -77c-48 -84 -213 -385 -306 -558c85 -5 201 -7 286 -12z" />
    <glyph glyph-name="bracketleft" unicode="[" horiz-adv-x="367" 
d="M99 -88l-23 884c45 -8 148 0 191 -12l10 -44c-43 -11 -101 -20 -144 -20c6 -158 25 -542 31 -745c33 -5 105 -3 138 -12l6 -45c-74 3 -127 -3 -209 -6z" />
    <glyph glyph-name="backslash" unicode="\" horiz-adv-x="398" 
d="M-31 805l79 -8c112 -253 292 -661 422 -884c-32 -15 -80 -9 -86 0c-93 139 -315 611 -415 892z" />
    <glyph glyph-name="bracketright" unicode="]" horiz-adv-x="336" 
d="M277 796l-23 -884c-82 3 -135 9 -209 6l6 45c33 9 105 7 138 12c6 203 25 587 31 745c-43 0 -101 9 -144 20l10 44c43 12 146 4 191 12z" />
    <glyph glyph-name="asciicircum" unicode="^" 
d="M470 331l-64 1c-42 47 -117 215 -160 275c-20 -41 -127 -217 -176 -259l-42 22c37 80 127 241 181 324c9 14 72 39 87 -5c35 -113 116 -244 174 -358z" />
    <glyph glyph-name="underscore" unicode="_" horiz-adv-x="601" 
d="M36 15l-10 44c165 14 330 22 495 31c57 -4 86 -81 19 -88c-168 7 -336 2 -504 13z" />
    <glyph glyph-name="grave" unicode="`" horiz-adv-x="323" 
d="M257 522l-41 -25c-54 23 -92 143 -124 194c-13 63 48 67 79 24c17 -70 79 -172 86 -193z" />
    <glyph glyph-name="a" unicode="a" horiz-adv-x="373" 
d="M59 422l-19 50c62 62 190 79 245 12c95 -113 49 -345 53 -471c-19 -66 -87 -12 -77 36c-51 -49 -119 -75 -178 -49c-158 72 -49 288 67 338c26 11 76 18 110 16c-3 40 -9 69 -18 78c-44 55 -112 42 -183 -10zM263 116c2 62 3 129 0 186c-95 4 -176 -67 -190 -159
c-11 -67 48 -99 93 -78c26 11 73 34 97 51z" />
    <glyph glyph-name="b" unicode="b" horiz-adv-x="414" 
d="M91 -19l-44 -10c-7 250 -15 521 -22 771c27 14 48 18 74 23c-3 -85 0 -194 7 -280c81 48 210 34 248 -66c37 -96 56 -258 -2 -349c-53 -87 -151 -127 -260 -59c-1 -10 -1 -20 -1 -30zM103 390l-3 -315c14 -41 141 -49 169 -22c71 65 49 235 19 319
c-34 97 -153 83 -185 18z" />
    <glyph glyph-name="c" unicode="c" horiz-adv-x="376" 
d="M343 484l-5 -42c-111 18 -161 -5 -194 -41c-55 -89 -86 -210 -44 -320c22 -53 88 -54 194 -28c38 13 55 19 61 -47c-111 -37 -291 -49 -324 57c-31 98 -27 323 67 410c41 38 186 47 245 11z" />
    <glyph glyph-name="d" unicode="d" horiz-adv-x="414" 
d="M360 -25l-44 10c0 10 0 20 -1 30c-109 -68 -207 -28 -260 59c-58 91 -39 253 -2 349c38 100 167 114 248 66c7 86 10 195 7 280c26 -5 47 -9 74 -23c-7 -250 -15 -521 -22 -771zM307 79l-3 315c-32 65 -151 79 -185 -18c-30 -84 -52 -254 19 -319c28 -27 155 -19 169 22z
" />
    <glyph glyph-name="e" unicode="e" horiz-adv-x="424" 
d="M415 95l9 -43c-52 -21 -194 -52 -252 -54c-76 -1 -124 83 -138 150c-21 106 -22 221 43 307c30 41 194 86 253 28c52 -51 61 -116 14 -165c-58 -38 -186 -72 -264 -75c3 -65 14 -126 54 -162c38 -35 263 13 281 14zM84 304c58 17 161 53 217 80c-13 60 -34 79 -123 43
c-52 -22 -89 -65 -94 -123z" />
    <glyph glyph-name="f" unicode="f" horiz-adv-x="332" 
d="M300 427l9 -45c-44 -7 -96 -7 -140 -15c0 -113 0 -251 6 -364c-17 -56 -69 -44 -78 0c0 72 7 232 7 360c-13 -1 -62 4 -75 3c-2 21 -1 41 -1 66c20 -3 54 -6 74 -9c3 123 -6 233 39 266c39 28 147 16 194 -12l-6 -35c-88 3 -166 28 -161 -91c2 -47 1 -78 0 -125
c48 0 91 -4 132 1z" />
    <glyph glyph-name="g" unicode="g" horiz-adv-x="397" 
d="M317 504l44 10c4 -136 21 -504 -18 -678c-46 -122 -179 -98 -318 -82c-3 30 -11 36 -3 66c141 -14 277 -67 280 180c-81 -48 -210 -34 -248 66c-37 96 -56 258 2 349c53 87 151 127 260 59c1 10 1 20 1 30zM305 95l3 315c-14 41 -141 49 -169 22
c-71 -65 -49 -235 -19 -319c34 -97 153 -83 185 -18z" />
    <glyph glyph-name="h" unicode="h" horiz-adv-x="419" 
d="M41 703l51 -12c5 -74 4 -175 8 -249c104 110 290 50 290 -116v-321c-21 -10 -55 -5 -72 -2c3 111 -7 224 -5 335c-23 139 -164 91 -203 29c6 -117 2 -248 7 -364c-26 -5 -59 -6 -81 2c7 213 -7 485 5 698z" />
    <glyph glyph-name="i" unicode="i" horiz-adv-x="222" 
d="M85 502l44 -10c13 -139 14 -324 22 -464c-17 -56 -79 -25 -88 19c8 137 9 319 22 455zM142 657c43 -62 6 -137 -60 -87c-41 60 -12 147 60 87z" />
    <glyph glyph-name="j" unicode="j" horiz-adv-x="216" 
d="M-31 -183l-10 26c76 28 97 30 120 96c27 241 14 337 17 529c7 67 70 48 74 -9c-1 -221 9 -184 -25 -514c-13 -125 -102 -114 -176 -128zM153 659c43 -62 6 -137 -60 -87c-41 60 -12 147 60 87z" />
    <glyph glyph-name="k" unicode="k" horiz-adv-x="392" 
d="M390 0l-89 2c-63 63 -132 164 -185 216c1 -40 4 -162 6 -201c-17 -56 -79 -25 -88 19c7 203 0 466 7 669l59 -13c3 -105 4 -235 8 -340c69 61 141 129 238 173l16 -44c-82 -57 -151 -125 -218 -190c53 -57 169 -205 246 -291z" />
    <glyph glyph-name="l" unicode="l" horiz-adv-x="185" 
d="M69 670l44 -10c7 -210 15 -421 22 -632c-17 -56 -79 -25 -88 19c7 208 15 415 22 623z" />
    <glyph glyph-name="m" unicode="m" horiz-adv-x="551" 
d="M308 387c8 -124 8 -299 11 -384c-19 -5 -48 -9 -67 -1c-14 202 19 424 -80 430c-26 2 -40 -9 -65 -41l4 -387c-23 -12 -54 -7 -70 -3c7 155 0 355 12 510l44 -10l3 -50c35 56 80 49 119 38c33 -9 47 -24 67 -51c32 69 97 64 136 53c157 -44 88 -394 104 -491
c-19 -5 -56 -20 -75 -12c-20 72 51 443 -76 446c-26 1 -42 -15 -67 -47z" />
    <glyph glyph-name="n" unicode="n" horiz-adv-x="398" 
d="M107 391l4 -387c-23 -12 -54 -7 -70 -3c7 155 0 355 12 510l44 -10l3 -55c38 40 93 64 148 52c165 -35 111 -400 127 -497c-19 -5 -58 -1 -77 7c-20 72 48 417 -93 424c-64 3 -73 -9 -98 -41z" />
    <glyph glyph-name="o" unicode="o" horiz-adv-x="407" 
d="M106 491c29 35 94 36 138 12c133 -58 170 -233 119 -399c-16 -52 -87 -139 -157 -132c-53 6 -124 47 -153 92c-73 113 -21 336 53 427zM184 468c-74 -8 -97 -211 -95 -272c-2 -100 101 -210 177 -110c97 127 63 365 -82 382z" />
    <glyph glyph-name="p" unicode="p" horiz-adv-x="398" 
d="M44 514l44 -10c0 -10 0 -20 1 -30c109 68 207 28 260 -59c58 -91 39 -253 2 -349c-38 -100 -167 -114 -248 -66c2 -84 4 -169 7 -254c-17 -56 -79 -25 -88 19c7 250 15 499 22 749zM97 410l3 -315c32 -65 151 -79 185 18c30 84 52 254 -19 319c-28 27 -155 19 -169 -22z
" />
    <glyph glyph-name="q" unicode="q" horiz-adv-x="395" 
d="M315 504l44 10c7 -250 15 -521 22 -771c-27 -14 -48 -18 -74 -23c3 85 0 194 -7 280c-81 -48 -210 -34 -248 66c-37 96 -56 258 2 349c53 87 151 127 260 59c1 10 1 20 1 30zM303 95l3 315c-14 41 -141 49 -169 22c-71 -65 -49 -235 -19 -319c34 -97 153 -83 185 -18z
" />
    <glyph glyph-name="r" unicode="r" horiz-adv-x="370" 
d="M345 362l-43 3c-39 102 -138 37 -195 5c1 0 -1 -338 4 -354c-17 -56 -79 -25 -88 19c9 149 19 326 33 474l44 -10c1 -18 2 -36 3 -55c77 63 267 50 242 -82z" />
    <glyph glyph-name="s" unicode="s" horiz-adv-x="376" 
d="M338 471l-10 -39c-65 28 -145 57 -215 25c-22 -10 -27 -117 10 -137c37 -19 154 -25 199 -71c83 -87 5 -246 -125 -265c-77 -2 -145 36 -180 79l28 30c56 -23 66 -38 127 -41c75 -2 146 59 99 159c-11 23 -168 48 -201 76c-52 45 -47 170 7 212c73 59 191 -1 261 -28z
" />
    <glyph glyph-name="t" unicode="t" horiz-adv-x="420" 
d="M341 473l10 -44c-54 -4 -109 -17 -163 -21c6 -116 2 -294 50 -339c43 -16 79 -15 133 2c8 -16 13 -28 27 -52c-48 -12 -167 -45 -207 -16c-71 51 -53 280 -62 408c-18 -2 -70 -1 -88 -2c-3 28 -6 47 -7 68c25 -2 73 2 99 0c2 54 4 120 8 174l44 -10c2 -52 2 -108 3 -161
c51 -4 102 -3 153 -7z" />
    <glyph glyph-name="u" unicode="u" horiz-adv-x="404" 
d="M313 490l47 -9c-1 -85 14 -368 23 -478c-30 -12 -48 -8 -72 -3l-8 25c-56 -30 -115 -46 -175 -25c-148 55 -99 407 -89 514l44 -10c3 -97 -2 -275 19 -367c24 -94 129 -83 197 -56c6 136 1 279 14 409z" />
    <glyph glyph-name="v" unicode="v" horiz-adv-x="390" 
d="M314 502l65 -9c-44 -186 -81 -311 -121 -491c-48 -8 -73 -9 -110 -3c-49 175 -101 341 -140 507l64 -5c39 -119 88 -284 127 -406c46 133 83 286 115 407z" />
    <glyph glyph-name="w" unicode="w" horiz-adv-x="603" 
d="M526 506l65 -9c-44 -186 -81 -311 -121 -491c-48 -8 -73 -9 -110 -3c-18 64 -37 128 -55 191l-47 -192c-48 -8 -73 -9 -110 -3c-49 175 -101 341 -140 507l64 -5c39 -119 88 -284 127 -406c25 73 48 154 68 231c-17 61 -33 123 -47 184l64 -5c39 -119 88 -284 127 -406
c46 133 83 286 115 407z" />
    <glyph glyph-name="x" unicode="x" horiz-adv-x="410" 
d="M73 -24l-42 22c30 76 91 175 133 246c-64 86 -87 150 -129 256l43 1c32 -67 76 -133 122 -198c46 66 72 139 138 192c36 -21 42 -42 28 -74c-46 -55 -78 -125 -118 -186c51 -71 101 -141 139 -212c4 -60 -62 -51 -84 -10c-15 50 -53 110 -92 166
c-36 -60 -103 -142 -138 -203z" />
    <glyph glyph-name="y" unicode="y" horiz-adv-x="446" 
d="M108 -289l-60 34c63 110 76 139 141 264c-117 104 -161 346 -171 498l56 -3c31 -144 46 -316 139 -432c65 125 140 301 136 439c19 -3 38 -3 76 -19c-44 -288 -197 -567 -317 -781z" />
    <glyph glyph-name="z" unicode="z" horiz-adv-x="444" 
d="M45 465l-13 58c105 2 290 11 394 -3c-2 -16 0 -22 0 -47c-76 -138 -204 -257 -302 -404c89 0 212 -3 301 -2c2 -31 7 -46 4 -76c-117 4 -290 1 -407 2c-4 24 -4 30 0 65c38 74 270 322 300 410c-77 5 -201 -5 -277 -3z" />
    <glyph glyph-name="braceleft" unicode="{" horiz-adv-x="393" 
d="M79 330l-1 51c160 108 9 338 217 401l15 -32c-159 -36 -41 -344 -174 -394c143 -135 25 -404 181 -425l-15 -32c-205 35 -63 323 -223 431z" />
    <glyph glyph-name="bar" unicode="|" horiz-adv-x="200" 
d="M77 820l44 -10c9 -189 9 -694 22 -826c-17 -56 -79 -25 -88 19c7 186 24 581 22 817z" />
    <glyph glyph-name="braceright" unicode="}" horiz-adv-x="393" 
d="M316 381l-1 -51c-160 -108 -18 -396 -223 -431l-15 32c156 21 38 290 181 425c-133 50 -15 358 -174 394l15 32c208 -63 57 -293 217 -401z" />
    <glyph glyph-name="quotesinglbase" unicode="&#x201a;" horiz-adv-x="209" 
d="M42 -117l-1 31c56 19 79 44 66 89c-17 -2 -31 -7 -40 12c-41 60 -12 147 60 87c65 -93 52 -213 -85 -219z" />
    <glyph glyph-name="quotedblbase" unicode="&#x201e;" horiz-adv-x="404" 
d="M42 -117l-1 31c56 19 79 44 66 89c-17 -2 -31 -7 -40 12c-41 60 -12 147 60 87c65 -93 52 -213 -85 -219zM228 -123l-1 31c56 19 79 44 66 89c-17 -2 -31 -7 -40 12c-41 60 -12 147 60 87c65 -93 52 -213 -85 -219z" />
    <glyph glyph-name="quoteright" unicode="&#x2019;" horiz-adv-x="209" 
d="M53 529l-1 31c56 19 79 44 66 89c-17 -2 -31 -7 -40 12c-41 60 -12 147 60 87c65 -93 52 -213 -85 -219z" />
    <glyph glyph-name="quotedblright" unicode="&#x201d;" horiz-adv-x="404" 
d="M39 535l-1 31c56 19 79 44 66 89c-17 -2 -31 -7 -40 12c-41 60 -12 147 60 87c65 -93 52 -213 -85 -219zM225 529l-1 31c56 19 79 44 66 89c-17 -2 -31 -7 -40 12c-41 60 -12 147 60 87c65 -93 52 -213 -85 -219z" />
    <glyph glyph-name="endash" unicode="&#x2013;" horiz-adv-x="669" 
d="M54 395l-7 53c300 4 182 4 539 11c57 -4 74 -62 7 -69c-272 0 -203 5 -539 5z" />
    <glyph glyph-name="emdash" unicode="&#x2014;" horiz-adv-x="934" 
d="M54 395l-7 53c300 4 453 1 810 8c57 -4 74 -62 7 -69c-272 0 -474 8 -810 8z" />
    <glyph glyph-name="afii10023" unicode="&#x401;" horiz-adv-x="428" 
d="M395 44l10 -44c-73 3 -319 -17 -382 0c20 221 3 518 24 711c80 -8 285 -1 364 -14l10 -44c-74 -13 -239 -22 -314 -30c3 -77 8 -129 9 -206c60 -7 173 -15 232 -21l10 -44c-63 -6 -178 -19 -241 -20c1 -67 -4 -191 -3 -259c85 -8 197 -16 281 -29zM153 911
c43 -62 6 -137 -60 -87c-41 60 -12 147 60 87zM362 911c43 -62 6 -137 -60 -87c-41 60 -12 147 60 87z" />
    <glyph glyph-name="guillemotleft" unicode="&#xab;" horiz-adv-x="635" 
d="M480 146l-14 -30c-151 38 -294 124 -406 199c-4 8 -4 22 1 28c96 64 326 207 378 234l26 -17c-111 -86 -205 -155 -326 -222c99 -76 232 -142 341 -192zM588 229l-27 -21c-69 29 -220 82 -282 129c97 52 227 120 273 161l22 -20c-53 -44 -136 -107 -203 -138
c45 -38 143 -62 217 -111z" />
    <glyph glyph-name="afii10071" unicode="&#x451;" horiz-adv-x="424" 
d="M415 95l9 -43c-52 -21 -194 -52 -252 -54c-76 -1 -124 83 -138 150c-21 106 -22 221 43 307c30 41 194 86 253 28c52 -51 61 -116 14 -165c-58 -38 -186 -72 -264 -75c3 -65 14 -126 54 -162c38 -35 263 13 281 14zM84 304c58 17 161 53 217 80c-13 60 -34 79 -123 43
c-52 -22 -89 -65 -94 -123zM138 680c43 -62 6 -137 -60 -87c-41 60 -12 147 60 87zM339 680c43 -62 6 -137 -60 -87c-41 60 -12 147 60 87z" />
    <glyph glyph-name="guillemotright" unicode="&#xbb;" horiz-adv-x="635" 
d="M178 116l-14 30c109 50 242 116 341 192c-121 67 -215 136 -326 222l26 17c52 -27 282 -170 378 -234c5 -6 5 -20 1 -28c-112 -75 -255 -161 -406 -199zM83 208l-27 21c74 49 172 73 217 111c-67 31 -150 94 -203 138l22 20c46 -41 176 -109 273 -161
c-62 -47 -213 -100 -282 -129z" />
    <glyph glyph-name="afii10017" unicode="&#x410;" horiz-adv-x="534" 
d="M231 708l74 -5c53 -233 166 -443 224 -673c5 -69 -60 -74 -72 -17c-14 62 -38 119 -58 172c-106 14 -149 20 -252 31c-24 -65 -39 -158 -61 -224c-35 -42 -88 -1 -83 45c61 224 162 438 228 671zM265 609c-18 -105 -70 -245 -109 -346c82 -1 159 3 234 -5
c-50 107 -104 234 -125 351z" />
    <glyph glyph-name="afii10018" unicode="&#x411;" horiz-adv-x="460" 
d="M378 714l-12 -50c-99 -7 -158 -8 -260 -15c4 -73 -1 -147 0 -220c187 50 321 -54 326 -217c31 -205 -332 -257 -404 -187c8 219 3 478 16 697zM107 385c2 -73 -2 -215 -1 -288c66 -84 250 10 249 125c0 124 -115 195 -248 163z" />
    <glyph glyph-name="afii10019" unicode="&#x412;" horiz-adv-x="451" 
d="M28 25l5 688c17 55 149 33 188 20c73 -23 145 -69 153 -150c6 -64 -29 -143 -78 -162c64 -7 133 -125 136 -209c31 -205 -332 -257 -404 -187zM108 363c2 -73 -3 -193 -2 -266c66 -84 250 10 249 125c0 124 -114 173 -247 141zM106 448c263 -70 248 311 -2 231
c-1 0 -1 1 -1 1c3 -100 2 -159 3 -232z" />
    <glyph glyph-name="afii10020" unicode="&#x413;" horiz-adv-x="382" 
d="M388 699l10 -44c-87 -7 -215 -12 -301 -19c6 -195 2 -436 9 -630c-17 -56 -79 -25 -88 19c20 214 8 486 15 680c90 -7 266 1 355 -6z" />
    <glyph glyph-name="afii10021" unicode="&#x414;" horiz-adv-x="561" 
d="M542 -105l-44 10c-4 32 -14 67 -30 101c-122 10 -247 6 -368 0c-7 -26 -15 -74 -22 -123l-42 4c-13 63 -22 138 -19 188c2 0 62 1 64 1c90 183 69 414 75 616c77 6 226 6 304 5c6 -177 16 -436 22 -612c29 -3 31 -2 64 -5c-7 -50 3 -134 -4 -185zM160 82
c79 0 157 -6 234 0c6 182 -2 378 4 560c-57 5 -104 -2 -163 -5c-14 -194 0 -368 -75 -555z" />
    <glyph glyph-name="afii10022" unicode="&#x415;" horiz-adv-x="428" 
d="M395 44l10 -44c-73 3 -319 -17 -382 0c20 221 3 518 24 711c80 -8 285 -1 364 -14l10 -44c-74 -13 -239 -22 -314 -30c3 -77 8 -129 9 -206c60 -7 173 -15 232 -21l10 -44c-63 -6 -178 -19 -241 -20c1 -67 -4 -191 -3 -259c85 -8 197 -16 281 -29z" />
    <glyph glyph-name="afii10024" unicode="&#x416;" horiz-adv-x="890" 
d="M417 446l7 269l44 -10c2 -73 9 -185 11 -257c86 32 134 199 200 258c41 37 144 15 189 6l-10 -39c-46 7 -68 17 -102 4c-107 -41 -103 -213 -234 -304c100 -94 160 -319 211 -350c35 -21 90 -13 133 -2l3 -37c-51 -15 -122 -23 -166 -3c-107 49 -134 235 -217 292
c3 -82 7 -186 10 -267c-17 -56 -79 -25 -88 19c2 33 -1 84 2 246c-83 -57 -110 -243 -217 -292c-44 -20 -115 -12 -166 3l3 37c43 -11 98 -19 133 2c51 31 111 256 211 350c-131 91 -127 263 -234 304c-34 13 -56 3 -102 -4l-10 39c45 9 148 31 189 -6
c66 -59 114 -226 200 -258z" />
    <glyph glyph-name="afii10025" unicode="&#x417;" horiz-adv-x="438" 
d="M69 611l-31 33c96 63 222 107 310 21c62 -71 69 -222 -20 -274c112 -20 119 -221 67 -325c-54 -107 -318 -103 -383 47c15 14 2 13 29 28c123 -112 347 -155 307 113c-30 87 -93 116 -202 105c-4 24 -5 14 -13 72c47 4 157 -4 177 56c64 181 -128 179 -241 124z" />
    <glyph glyph-name="afii10026" unicode="&#x418;" horiz-adv-x="473" 
d="M31 716l44 -10c10 -168 16 -368 22 -536c62 109 197 356 262 545c43 37 78 -18 79 -71c7 -204 4 -431 13 -629c-17 -56 -79 -25 -88 19c5 153 2 345 5 498c-80 -140 -161 -325 -268 -447c1 -27 3 -53 4 -79c-17 -56 -79 -25 -88 19c7 219 4 472 15 691z" />
    <glyph glyph-name="afii10027" unicode="&#x419;" horiz-adv-x="473" 
d="M31 716l44 -10c10 -168 16 -368 22 -536c62 109 197 356 262 545c43 37 78 -18 79 -71c7 -204 4 -431 13 -629c-17 -56 -79 -25 -88 19c5 153 2 345 5 498c-80 -140 -161 -325 -268 -447c1 -27 3 -53 4 -79c-17 -56 -79 -25 -88 19c7 219 4 472 15 691zM121 792l-7 31
c71 -9 119 1 170 34c46 -3 80 -46 29 -74c-64 -6 -128 -5 -192 9z" />
    <glyph glyph-name="afii10028" unicode="&#x41a;" 
d="M476 21l3 -37c-51 -15 -122 -23 -166 -3c-107 49 -134 235 -217 292c3 -82 7 -186 10 -267c-17 -56 -79 -25 -88 19c3 63 10 605 16 690l44 -10c2 -73 9 -185 11 -257c86 32 134 199 200 258c41 37 144 15 189 6l-10 -39c-46 7 -68 17 -102 4
c-107 -41 -103 -213 -234 -304c100 -94 160 -319 211 -350c35 -21 90 -13 133 -2z" />
    <glyph glyph-name="afii10029" unicode="&#x41b;" 
d="M-44 -92l-28 51c194 87 167 217 191 348c28 152 23 238 17 390c71 12 234 -4 324 6c29 -168 -8 -478 24 -706c-17 -56 -79 -25 -88 19c6 199 -9 416 -1 615c-57 5 -113 0 -169 8c-4 -144 -27 -319 -53 -461c-21 -115 -89 -235 -217 -270z" />
    <glyph glyph-name="afii10030" unicode="&#x41c;" horiz-adv-x="764" 
d="M748 0l-74 -7c-33 207 -67 385 -117 577c-57 -134 -82 -274 -124 -393c-24 -3 -76 5 -98 5c-2 52 -86 289 -109 394c-16 -144 -103 -460 -136 -576l-61 6c29 235 112 455 131 688c39 6 79 -3 100 -6c30 -5 104 -345 125 -400c50 124 85 314 121 411c35 -2 57 -5 98 -9
c57 -221 97 -462 144 -690z" />
    <glyph glyph-name="afii10031" unicode="&#x41d;" horiz-adv-x="461" 
d="M342 702l56 12c31 -240 16 -468 32 -706c-17 -56 -79 -25 -88 19c2 92 0 218 1 310c-75 -5 -150 -16 -228 -11c3 -106 10 -213 14 -318c-17 -56 -79 -25 -88 19c8 213 2 474 15 687l44 -10c5 -95 12 -225 15 -320c75 6 150 13 225 20c1 0 2 -1 2 298z" />
    <glyph glyph-name="afii10032" unicode="&#x41e;" horiz-adv-x="493" 
d="M38 460l18 144c11 92 106 134 182 131c243 -38 239 -323 221 -506c-13 -146 -35 -255 -204 -240c-52 5 -137 15 -181 49c-88 70 -47 330 -36 422zM262 651c-174 40 -160 -197 -161 -304c-1 -161 -32 -304 157 -294c215 11 164 570 4 598z" />
    <glyph glyph-name="afii10033" unicode="&#x41f;" horiz-adv-x="461" 
d="M56 714h342c31 -240 16 -468 32 -706c-17 -56 -79 -25 -88 19c2 92 -11 526 -10 618c-75 -5 -142 -9 -220 -4c3 -106 13 -528 17 -633c-17 -56 -79 -25 -88 19c8 213 2 474 15 687z" />
    <glyph glyph-name="afii10034" unicode="&#x420;" horiz-adv-x="473" 
d="M48 701l44 12c0 -5 0 -31 1 -35c67 43 230 55 293 -2c114 -102 112 -409 -56 -461c-65 -19 -154 -4 -218 3c2 -74 5 -148 8 -222c-17 -56 -79 -25 -88 19c7 229 5 457 16 686zM101 612l8 -304c46 -26 139 -44 192 -16c205 108 40 501 -200 320z" />
    <glyph glyph-name="afii10035" unicode="&#x421;" 
d="M454 645l-39 -45c-148 109 -317 65 -330 -187c2 -119 -15 -157 47 -281c73 -145 187 -97 319 -30c17 -24 22 -38 34 -62c-138 -95 -291 -136 -396 16c-113 167 -96 371 -26 552c63 162 287 106 391 37z" />
    <glyph glyph-name="afii10036" unicode="&#x422;" horiz-adv-x="451" 
d="M25 655l-10 44c125 7 249 15 373 22c57 -4 86 -81 19 -88c-55 3 -109 6 -164 9c15 -208 27 -418 36 -627c-17 -56 -79 -25 -88 19c6 204 -5 407 5 611c-57 4 -114 7 -171 10z" />
    <glyph glyph-name="afii10037" unicode="&#x423;" 
d="M9 666l51 48c78 -127 133 -285 203 -421c49 126 102 266 147 400c28 51 76 13 79 -33c-123 -263 -209 -482 -334 -691l-63 12c68 139 80 161 126 248c-40 111 -143 307 -209 437z" />
    <glyph glyph-name="afii10038" unicode="&#x424;" horiz-adv-x="717" 
d="M315 105c4 156 5 338 10 494c-87 -17 -124 -11 -188 -77c-90 -92 -96 -280 3 -369c24 -22 137 -60 175 -48zM371 717l4 -70c162 19 338 -94 336 -270c-4 -130 -31 -275 -171 -327c-43 -16 -94 -10 -140 -7c0 -10 -1 -37 0 -46c-17 -56 -79 -25 -88 19l1 27
c-46 -3 -96 -9 -139 7c-140 52 -167 197 -171 327c0 168 163 290 323 268c3 16 -1 56 1 82zM378 598c8 -156 13 -337 18 -493c136 -2 161 32 178 48c99 89 93 277 3 369c-67 69 -105 57 -199 76z" />
    <glyph glyph-name="afii10039" unicode="&#x425;" horiz-adv-x="520" 
d="M23 -9l-42 22c56 132 144 250 219 370c-67 104 -147 209 -213 317l41 19c64 -75 147 -191 208 -279c9 33 149 210 178 262c28 51 84 14 87 -32c-22 -28 -180 -253 -220 -300c74 -113 199 -270 245 -344c4 -60 -62 -51 -84 -10c-81 127 -132 192 -200 298
c-69 -109 -153 -213 -219 -323z" />
    <glyph glyph-name="afii10040" unicode="&#x426;" horiz-adv-x="508" 
d="M488 -111h-45c-10 37 -16 74 -22 111c-99 -11 -327 -10 -382 -3c7 211 13 508 20 719l44 -10c6 -198 10 -441 16 -646c146 1 73 -12 227 13c7 203 18 446 25 643l44 -10c-3 -383 1 -526 3 -630c25 0 53 -3 86 -3c-5 -60 -5 -117 -16 -184z" />
    <glyph glyph-name="afii10041" unicode="&#x427;" horiz-adv-x="433" 
d="M342 696l44 -10c5 -70 24 -597 25 -665c-17 -56 -79 -25 -88 19c3 92 4 177 6 270c-251 -72 -338 96 -279 398l44 -10c-16 -232 22 -399 237 -300c2 88 5 209 11 298z" />
    <glyph glyph-name="afii10042" unicode="&#x428;" horiz-adv-x="604" 
d="M532 716l44 -10c-4 -483 9 -579 6 -706c-99 -11 -493 -15 -548 -8c7 211 13 508 20 719l44 -10c6 -198 10 -441 16 -646c51 2 103 5 154 7c7 204 18 449 25 647l44 -10c6 -194 10 -431 16 -633c51 3 103 5 154 7c7 203 18 446 25 643z" />
    <glyph glyph-name="afii10043" unicode="&#x429;" horiz-adv-x="669" 
d="M649 -111h-45c-10 37 -16 74 -22 111c-99 -11 -493 -15 -548 -8c7 211 13 508 20 719l44 -10c6 -198 10 -441 16 -646c51 2 103 5 154 7c7 204 18 449 25 647l44 -10c6 -194 10 -431 16 -633c51 3 103 5 154 7c7 203 18 446 25 643l44 -10c-3 -383 1 -526 3 -630
c25 0 53 -3 86 -3c-5 -60 -5 -117 -16 -184z" />
    <glyph glyph-name="afii10044" unicode="&#x42a;" horiz-adv-x="577" 
d="M-6 655l-14 59c59 4 117 1 217 9c6 -93 12 -214 16 -307c299 41 455 -235 276 -403c-55 -51 -326 -38 -346 0c6 190 3 420 10 621c-53 7 -105 14 -159 21zM218 343c3 -90 6 -187 10 -278c42 -5 185 -21 212 12c112 137 -3 297 -222 266z" />
    <glyph glyph-name="afii10045" unicode="&#x42b;" horiz-adv-x="669" 
d="M50 718l44 -10c6 -93 8 -199 12 -292c299 41 455 -235 276 -403c-55 -51 -326 -38 -346 0c7 218 2 487 14 705zM111 343c3 -90 6 -187 10 -278c42 -5 185 -21 212 12c112 137 -3 297 -222 266zM571 711l44 -10c13 -230 17 -461 25 -691c-17 -56 -79 -25 -88 19
c8 227 6 455 19 682z" />
    <glyph glyph-name="afii10046" unicode="&#x42c;" horiz-adv-x="470" 
d="M50 718l44 -10c6 -93 8 -199 12 -292c299 41 455 -235 276 -403c-55 -51 -326 -38 -346 0c7 218 2 487 14 705zM111 343c3 -90 6 -187 10 -278c42 -5 185 -21 212 12c112 137 -3 297 -222 266z" />
    <glyph glyph-name="afii10047" unicode="&#x42d;" horiz-adv-x="520" 
d="M419 406c-13 259 -182 303 -330 194l-39 45c104 69 328 125 391 -37c70 -181 87 -385 -26 -552c-105 -152 -258 -111 -396 -16c12 24 17 38 34 62c132 -67 246 -115 319 30c42 85 47 131 47 189c-55 4 -221 21 -253 42l7 35c0 2 205 11 246 8z" />
    <glyph glyph-name="afii10048" unicode="&#x42e;" horiz-adv-x="634" 
d="M19 714l44 -10c7 -109 14 -245 18 -353c38 6 75 12 113 18c3 94 -4 190 49 273c76 125 264 101 326 -38c70 -158 77 -339 21 -500c-44 -132 -303 -168 -377 -45c-36 66 -34 153 -29 228c-37 6 -64 10 -101 15c4 -93 7 -187 11 -281c-17 -56 -79 -25 -88 19
c7 215 1 459 13 674zM255 328c-10 -83 31 -273 80 -279c127 -11 201 75 214 188c14 119 3 332 -102 402c-146 97 -195 -216 -192 -311z" />
    <glyph glyph-name="afii10049" unicode="&#x42f;" 
d="M159 684c55 24 211 30 310 13c14 -35 3 -203 18 -682c-17 -56 -79 -25 -88 19c3 91 5 183 6 274c-17 0 -36 -2 -56 -2c-15 -131 -179 -341 -315 -371l-16 44c160 55 218 221 246 327c-45 2 -87 8 -114 24c-101 60 -121 291 9 354zM409 370l5 254
c-186 59 -278 -28 -272 -118c8 -125 93 -175 267 -136z" />
    <glyph glyph-name="afii10065" unicode="&#x430;" horiz-adv-x="373" 
d="M59 422l-19 50c62 62 190 79 245 12c95 -113 49 -345 53 -471c-19 -66 -87 -12 -77 36c-51 -49 -119 -75 -178 -49c-158 72 -49 288 67 338c26 11 76 18 110 16c-3 40 -9 69 -18 78c-44 55 -112 42 -183 -10zM263 116c2 62 3 129 0 186c-95 4 -176 -67 -190 -159
c-11 -67 48 -99 93 -78c26 11 73 34 97 51z" />
    <glyph glyph-name="afii10066" unicode="&#x431;" horiz-adv-x="429" 
d="M98 463l48 36c25 19 184 12 227 -49c44 -55 38 -280 -13 -391c-80 -176 -256 -106 -304 57c-26 92 -34 355 -2 457c47 146 250 193 332 273c20 -24 17 -4 46 -72c-110 -64 -336 -128 -334 -311zM310 420c-91 40 -172 34 -197 -7c-40 -67 -21 -209 -2 -284
c14 -115 147 -141 181 -33c36 110 49 305 18 324z" />
    <glyph glyph-name="afii10067" unicode="&#x432;" horiz-adv-x="413" 
d="M47 501l106 25c62 7 111 16 171 -16c63 -33 40 -183 -8 -213c80 -54 94 -148 57 -231c-52 -116 -271 -118 -348 -35c4 91 8 182 13 273v1c3 65 6 131 9 196zM102 256l9 -198c118 -55 319 94 159 209c-95 2 -110 -2 -168 -11zM92 457c2 -42 5 -108 7 -150
c72 12 172 -25 189 135c-19 56 -125 18 -196 15z" />
    <glyph glyph-name="afii10068" unicode="&#x433;" horiz-adv-x="363" 
d="M44 501l4 -3l-1 3c77 7 168 18 244 25c57 -4 86 -81 19 -88c-73 6 -147 14 -221 20c9 -114 13 -229 19 -343c2 -33 13 -83 -14 -110c-98 -28 -65 72 -65 127c5 118 6 251 15 369z" />
    <glyph glyph-name="afii10069" unicode="&#x434;" horiz-adv-x="545" 
d="M71 -98l-44 10c-1 43 -14 93 -5 152c11 1 52 -2 63 -1c16 51 39 100 50 154c17 85 9 217 4 302c146 -8 203 -1 296 -16c6 -132 7 -304 13 -437c10 1 66 0 76 1c-3 -86 8 -126 1 -190l-44 10c-9 31 -15 63 -21 95c-126 7 -241 18 -367 25v-1c-7 -35 -15 -69 -22 -104z
M163 86c-3 -6 -8 -14 -14 -22c72 1 142 0 214 1c6 128 13 256 19 384c-54 3 -108 3 -161 8c-6 -123 -2 -257 -58 -371z" />
    <glyph glyph-name="afii10070" unicode="&#x435;" horiz-adv-x="424" 
d="M415 95l9 -43c-52 -21 -194 -52 -252 -54c-76 -1 -124 83 -138 150c-21 106 -22 221 43 307c30 41 194 86 253 28c52 -51 61 -116 14 -165c-58 -38 -186 -72 -264 -75c3 -65 14 -126 54 -162c38 -35 263 13 281 14zM84 304c58 17 161 53 217 80c-13 60 -34 79 -123 43
c-52 -22 -89 -65 -94 -123z" />
    <glyph glyph-name="afii10072" unicode="&#x436;" horiz-adv-x="628" 
d="M289 318c0 77 -2 136 9 212l44 -16c13 -65 5 -130 10 -196c121 21 75 280 262 214l-4 -34c-133 20 -117 -203 -199 -221c116 -28 79 -272 214 -241l3 -43c-176 -47 -171 266 -269 230c4 -63 9 -127 14 -190c-17 -56 -79 -25 -88 19c2 82 2 89 2 171
c-98 36 -93 -277 -269 -230l3 43c135 -31 98 213 214 241c-82 18 -66 241 -199 221l-4 34c187 66 146 -189 257 -214z" />
    <glyph glyph-name="afii10073" unicode="&#x437;" horiz-adv-x="330" 
d="M103 241l-4 55c48 -3 120 2 117 85c-16 110 -129 68 -163 59l-18 29c49 44 166 55 218 3c41 -41 28 -146 -20 -182c86 -19 104 -194 42 -259c-71 -63 -128 -72 -215 -31c-54 29 -46 81 21 57c93 -83 207 51 152 143c-24 41 -80 45 -130 41z" />
    <glyph glyph-name="afii10074" unicode="&#x438;" horiz-adv-x="457" 
d="M123 81c0 -15 1 -30 2 -44c-17 -56 -79 -25 -88 19c6 142 9 298 14 437l45 8c21 -111 9 -179 22 -320c66 98 170 216 224 314c48 10 59 4 62 -75c6 -122 13 -279 19 -402c-17 -56 -79 -25 -88 19c4 92 8 243 13 336c-71 -81 -172 -198 -225 -292z" />
    <glyph glyph-name="afii10075" unicode="&#x439;" horiz-adv-x="457" 
d="M123 81c0 -15 1 -30 2 -44c-17 -56 -79 -25 -88 19c6 142 9 298 14 437l45 8c21 -111 9 -179 22 -320c66 98 170 216 224 314c48 10 59 4 62 -75c6 -122 13 -279 19 -402c-17 -56 -79 -25 -88 19c4 92 8 243 13 336c-71 -81 -172 -198 -225 -292zM126 607l-7 31
c71 -9 119 1 170 34c46 -3 80 -46 29 -74c-64 -6 -128 -5 -192 9z" />
    <glyph glyph-name="afii10076" unicode="&#x43a;" horiz-adv-x="420" 
d="M397 24l3 -43c-176 -47 -171 266 -269 230c4 -63 9 -127 14 -190c-17 -56 -79 -25 -88 19c2 82 4 165 4 247c0 77 -2 155 9 231l44 -16c13 -65 5 -130 10 -196c121 21 75 280 262 214l-4 -34c-133 20 -117 -203 -199 -221c116 -28 79 -272 214 -241z" />
    <glyph glyph-name="afii10077" unicode="&#x43b;" horiz-adv-x="382" 
d="M-82 -88l-16 42c181 9 155 295 160 420c1 31 -11 105 9 127c20 23 196 12 274 16c1 -172 -1 -346 10 -515c-17 -54 -77 -25 -86 18c-4 149 3 297 -1 444c-73 -12 -91 -5 -138 -11c-10 -56 -3 -124 -6 -179c-7 -137 -27 -354 -206 -362z" />
    <glyph glyph-name="afii10078" unicode="&#x43c;" horiz-adv-x="608" 
d="M435 481l66 6c47 -127 81 -360 100 -491c-31 -6 -46 -4 -68 1c-27 110 -38 272 -66 382c-48 -78 -99 -209 -129 -287c-32 -5 -45 -11 -75 -4c-33 83 -61 175 -96 262c-42 -107 -99 -269 -117 -356l-38 11c9 130 84 346 112 495c21 0 33 -5 50 -5c46 -78 90 -242 128 -324
c31 89 74 210 133 310z" />
    <glyph glyph-name="afii10079" unicode="&#x43d;" horiz-adv-x="435" 
d="M326 495l44 -10c7 -157 15 -315 22 -473c-17 -56 -79 -25 -88 19c2 58 5 115 8 173c-68 4 -135 -2 -203 7c5 -61 9 -122 13 -183c-17 -56 -79 -25 -88 19c7 147 -5 294 7 441l44 -10c7 -72 14 -145 20 -218c80 -3 143 -15 212 -6c-1 0 7 224 9 241z" />
    <glyph glyph-name="afii10080" unicode="&#x43e;" horiz-adv-x="407" 
d="M106 491c29 35 94 36 138 12c133 -58 170 -233 119 -399c-16 -52 -87 -139 -157 -132c-53 6 -124 47 -153 92c-73 113 -21 336 53 427zM184 468c-74 -8 -97 -211 -95 -272c-2 -100 101 -210 177 -110c97 127 63 365 -82 382z" />
    <glyph glyph-name="afii10081" unicode="&#x43f;" horiz-adv-x="435" 
d="M41 488l329 -3c7 -157 15 -315 22 -473c-17 -56 -79 -25 -88 19c2 58 9 343 12 401c-68 4 -135 -2 -203 7c5 -61 5 -350 9 -411c-17 -56 -79 -25 -88 19c7 147 -5 294 7 441z" />
    <glyph glyph-name="afii10082" unicode="&#x440;" horiz-adv-x="398" 
d="M44 514l44 -10c0 -10 0 -20 1 -30c109 68 207 28 260 -59c58 -91 39 -253 2 -349c-38 -100 -167 -114 -248 -66c2 -84 4 -169 7 -254c-17 -56 -79 -25 -88 19c7 250 15 499 22 749zM97 410l3 -315c32 -65 151 -79 185 18c30 84 52 254 -19 319c-28 27 -155 19 -169 -22z
" />
    <glyph glyph-name="afii10083" unicode="&#x441;" horiz-adv-x="376" 
d="M343 484l-5 -42c-111 18 -161 -5 -194 -41c-55 -89 -86 -210 -44 -320c22 -53 88 -54 194 -28c38 13 55 19 61 -47c-111 -37 -291 -49 -324 57c-31 98 -27 323 67 410c41 38 186 47 245 11z" />
    <glyph glyph-name="afii10084" unicode="&#x442;" horiz-adv-x="462" 
d="M21 448l-9 43c138 8 275 15 412 22c56 -4 85 -79 18 -86l-183 9c9 -139 2 -278 9 -418c-17 -54 -77 -25 -86 18c8 134 16 269 28 403z" />
    <glyph glyph-name="afii10085" unicode="&#x443;" horiz-adv-x="462" 
d="M124 -289l-60 34c63 110 76 139 141 264c-117 104 -161 346 -171 498l56 -3c31 -144 46 -316 139 -432c65 125 140 301 136 439c19 -3 38 -3 76 -19c-44 -288 -197 -567 -317 -781z" />
    <glyph glyph-name="afii10086" unicode="&#x444;" horiz-adv-x="539" 
d="M288 -272l-50 9c-6 129 -4 133 -4 260c-134 0 -214 79 -217 197c-3 140 74 300 228 301c-3 68 -1 92 3 166c21 16 52 10 71 0c-4 -69 -8 -101 -6 -169c150 9 269 -289 175 -411c-40 -53 -125 -95 -190 -86c-4 -129 -6 -136 -10 -267zM234 60c1 129 25 252 10 376
c-186 34 -257 -419 -10 -376zM310 426l-12 -368c252 -8 156 359 12 368z" />
    <glyph glyph-name="afii10087" unicode="&#x445;" horiz-adv-x="410" 
d="M73 -24l-42 22c30 76 91 175 133 246c-64 86 -87 150 -129 256l43 1c32 -67 76 -133 122 -198c46 66 72 139 138 192c36 -21 42 -42 28 -74c-46 -55 -78 -125 -118 -186c51 -71 101 -141 139 -212c4 -60 -62 -51 -84 -10c-15 50 -53 110 -92 166
c-36 -60 -103 -142 -138 -203z" />
    <glyph glyph-name="afii10088" unicode="&#x446;" horiz-adv-x="436" 
d="M19 -3c7 136 0 383 12 520l44 -10c11 -132 9 -305 14 -438c39 2 169 -3 208 -1c6 136 8 304 15 440l44 -10c6 -129 3 -292 5 -430c25 -1 35 1 73 -1c-2 -55 -7 -116 -10 -189l-47 8c-5 33 -14 79 -19 111c-94 -3 -237 -6 -339 0z" />
    <glyph glyph-name="afii10089" unicode="&#x447;" horiz-adv-x="392" 
d="M298 519l40 12c19 -65 24 -479 35 -523c-17 -56 -79 -25 -88 19c2 56 3 112 4 169c-263 -68 -283 176 -257 326l44 -10c12 -134 -2 -304 213 -230c0 59 14 225 9 237z" />
    <glyph glyph-name="afii10090" unicode="&#x448;" horiz-adv-x="543" 
d="M472 508l44 -10c7 -154 -1 -347 6 -501c-90 -3 -395 -3 -498 3c8 149 5 374 18 523l44 -10c12 -140 9 -312 15 -453c39 3 112 1 151 3c7 136 -5 314 7 451l44 -10c11 -132 9 -305 14 -438c39 2 101 0 140 2c6 136 8 304 15 440z" />
    <glyph glyph-name="afii10091" unicode="&#x449;" horiz-adv-x="596" 
d="M584 -122l-47 8c-5 33 -14 79 -19 111c-94 -3 -392 -3 -494 3c8 149 5 374 18 523l44 -10c12 -140 9 -312 15 -453c39 3 112 1 151 3c7 136 -5 314 7 451l44 -10c11 -132 9 -305 14 -438c39 2 101 0 140 2c6 136 8 304 15 440l44 -10c6 -129 3 -292 5 -430
c25 -1 35 1 73 -1c-2 -55 -7 -116 -10 -189z" />
    <glyph glyph-name="afii10092" unicode="&#x44a;" horiz-adv-x="470" 
d="M-22 442l-10 44c44 2 123 9 195 -1c5 -57 11 -113 17 -169c258 79 380 -269 135 -325c-49 -11 -195 4 -193 28c4 124 -8 267 -6 397c-37 7 -101 19 -138 26zM188 256l-8 -196c236 -85 280 244 8 196z" />
    <glyph glyph-name="afii10093" unicode="&#x44b;" horiz-adv-x="498" 
d="M28 495l44 -10c5 -57 11 -113 17 -169c258 79 380 -269 135 -325c-49 -11 -195 4 -193 28c5 150 -13 327 -3 476zM97 256l-8 -196c236 -85 280 244 8 196zM402 498l44 -10c14 -155 22 -312 31 -468c-17 -56 -79 -25 -88 19c7 153 1 306 13 459z" />
    <glyph glyph-name="afii10094" unicode="&#x44c;" horiz-adv-x="379" 
d="M28 495l44 -10c5 -57 11 -113 17 -169c258 79 380 -269 135 -325c-49 -11 -195 4 -193 28c5 150 -13 327 -3 476zM97 256l-8 -196c236 -85 280 244 8 196z" />
    <glyph glyph-name="afii10095" unicode="&#x44d;" horiz-adv-x="373" 
d="M286 196c-86 11 -107 13 -177 33l3 48c98 -6 98 -6 165 -9c-10 48 -30 93 -54 133c-33 36 -83 59 -194 41l-5 42c59 36 204 27 245 -11c94 -87 98 -312 67 -410c-33 -106 -213 -94 -324 -57c6 66 23 60 61 47c106 -26 172 -25 194 28c16 44 23 70 19 115z" />
    <glyph glyph-name="afii10096" unicode="&#x44e;" horiz-adv-x="580" 
d="M118 195l5 -182c-17 -54 -77 -25 -86 18c7 144 14 288 21 431l43 -9c4 -72 7 -128 10 -200c48 4 96 -13 145 4c8 86 25 166 49 193c90 96 186 58 244 -48c29 -52 -4 -325 -66 -370c-68 -49 -227 -75 -233 44c-1 22 -1 58 1 98h-1zM493 346c-5 89 -83 155 -135 62
c-37 -66 -44 -235 -42 -332c147 -71 189 183 177 270z" />
    <glyph glyph-name="afii10097" unicode="&#x44f;" horiz-adv-x="431" 
d="M405 507l15 -525c-17 -54 -77 -25 -86 18c3 70 6 141 9 212c-26 -17 -55 -26 -84 -27c-49 -159 -106 -224 -273 -270l-16 42c133 33 192 123 208 241c-59 24 -106 79 -108 152c-2 77 29 157 127 166c84 8 146 8 208 -9zM351 294l-5 154c-67 10 -196 36 -212 -61
c-18 -122 160 -204 217 -93z" />
    </font>
</defs>
</svg>
